Patient4_TMGait_0pt6_01_left_19_EMG.mot
version=1
nRows=16
nColumns=33
inDegrees=no
endheader
time	1LAddLong	2LGlutMax	3LGlutMed	4LIliopsoas	5LSemiMemb	6LBicFemLong	7LRecFem	8LVastMed	9LVastLat	10LGasMed	11LTibAnt	12lTibPost	13LPeroneusLong	14LSol	15LExtDigLong	16LFlexDigLong	17RAddLong	18RGlutMax	19RGlutMed	20RIliopsoas	21RSemiMemb	22RBicFemLong	23RRecFem	24RVastMed	25RVastLat	26RGasMed	27RTibAnt	28RTibPost	29RPeroneusLong	30RSol	31RExtDigLong	32RFlexDigLong
23.09	0.006256	-0.092773	-0.036774	-0.005035	-0.000305	0.012665	0.11612	0.010529	-0.28671	-0.03891	-0.092468	0.007019	0.037842	-0.020447	0.48508	0.009613	0.020447	-0.79239	-0.34515	-0.10712	-0.16495	-0.039215	0.15579	-0.001068	0.055237	-0.001831	-0.000916	-0.006256	0.14877	0.035095	-0.001373	-0.003357
23.091	-0.003967	-0.11749	-0.029297	-0.003052	0.000153	0.007782	0.095825	0.017395	-0.2211	-0.016479	-0.054626	0.01236	0.14343	-0.008087	-0.50369	0.007172	0.03006	-0.71381	-0.18478	-0.080566	-0.17563	-0.011444	0.20844	-0.077362	0.05661	-0.000305	0.025177	0.001526	0.082092	0.42358	-0.001373	0.000305
23.092	-0.007172	-0.093384	-0.039978	0.005646	0.008698	0.00946	0.10605	0.016632	-0.15137	0.005035	0.023499	0.004425	0.091858	0.04425	-0.2359	-0.003967	0.028687	-0.63019	0.046539	-0.018311	-0.10529	0.048523	0.23163	-0.12207	0.014343	-0.000458	0.1152	0.003815	0.016174	0.37476	0.003815	-0.002441
23.093	-0.007782	-0.084229	-0.03479	0.012054	0.003204	0.014343	0.10834	0.015411	-0.080109	-0.006104	-0.001221	0.004272	0.094757	-0.041656	-0.29526	0.008087	0.002747	-0.57053	0.5188	0.019836	-0.09552	0.066986	0.24384	-0.1506	-0.070648	-0.000458	0.23254	0.004578	-0.11704	0.30472	0.008545	-0.003052
23.094	-0.015411	-0.076447	-0.036163	0.019531	-0.000305	0.002289	0.093994	0.016174	-0.013885	-0.022278	0.009155	-0.007477	0.11734	-0.12451	-0.02121	0.013275	-0.007019	-0.54169	0.60303	0.09903	0.072021	-0.012054	0.22156	0.010834	-0.098419	0.000458	0.18249	0.00061	-0.16525	0.70816	-0.002747	-0.003967
23.095	0.010834	-0.087128	-0.03067	0.009155	0.002594	0.001678	0.086823	0.021057	0.0354	-0.037079	0.005646	0.003204	0.079651	-0.096436	0.37079	0.01297	-0.019073	-0.47073	0.14648	0.063782	0.080566	-0.079498	-0.016937	0.097961	-0.061035	-0.000305	0.19348	-0.000763	-0.17288	0.59998	-0.009766	-0.00946
23.096	0.00473	-0.11337	-0.057831	0.006409	-0.003357	0.009003	0.092163	0.016785	0.071869	-0.050507	0.046997	0	0.049896	-0.088501	-0.45075	-0.00473	-0.015106	-0.40619	-0.18509	-0.000305	0.036011	-0.16205	-0.091248	0.16876	0.07843	-0.001831	0.13672	-0.000458	-0.1413	0.30289	-0.00351	0.000305
23.097	0.006104	-0.10788	-0.019226	0.001526	0.000916	0.011749	0.077057	0.011292	0.11246	-0.052795	0.099335	-0.001678	0.018768	-0.050659	-0.38116	-0.00946	0.019684	-0.34454	0.14496	-0.10742	0.035553	-0.20126	0.095062	0.1506	0.15564	-0.001984	0.093536	-0.000916	-0.16525	0.22461	0.000916	0.002136
23.098	0.009918	-0.12634	-0.045319	0.008698	-0.000458	-0.01236	0.086365	0.014343	0.14358	-0.032501	0.06546	-0.001678	0.011597	0.019379	-0.17029	0.007172	0.002747	-0.26169	0.13214	-0.16403	-0.098267	-0.14267	0.34973	0.052795	0.11673	0.005798	-0.1062	-0.001831	-0.054016	0.063324	-0.000305	-0.000153
23.099	0.011139	-0.13794	-0.032806	0.011444	0.004272	-0.025635	0.077667	0.019226	0.15564	-0.038605	-0.020599	-0.000458	0.046844	0.009155	0.041046	-0.001221	-0.00412	-0.20996	0.21759	-0.19089	-0.060883	-0.099945	0.15259	-0.058441	0.09552	0.015869	0.062408	0.000305	0.1384	-0.18219	-0.001526	0.00351
23.1	0.010071	-0.15518	-0.028229	0.017395	-0.002136	-0.011749	0.064545	0.014954	0.19257	-0.050507	-0.11673	-0.002594	0.074768	-0.008087	0.086517	0.011902	0.004883	-0.12573	0.076141	-0.10132	0.044556	-0.12634	-0.14084	-0.20859	0.017853	0.009155	0.24277	-0.010071	0.12772	-0.38345	-0.000916	0.000763
23.101	0.011597	-0.12497	-0.047607	0.015411	-0.002136	0.011444	0.075531	0.007782	0.19287	-0.041809	-0.077972	0.000153	0.096741	-0.04776	0.13077	0.018311	-0.000916	-0.007019	-0.35965	0.1265	0.046234	-0.068817	-0.28488	-0.042572	-0.16907	-0.001068	0.90057	-0.011444	-0.3891	-0.36163	0.000153	0.006866
23.102	0.009918	-0.13428	-0.039825	0.023499	-0.006714	0.006866	0.073395	0.016479	0.20172	-0.018311	-0.054169	0.001526	0.08667	-0.065002	0.26581	-0.006104	0.00351	0.050201	-0.56381	0.28214	0.049133	-0.043182	-0.33081	-0.049133	-0.17624	-0.00946	0.77881	-0.010376	-0.63446	-0.35187	-0.001221	-0.010223
23.103	0.009613	-0.15274	-0.040894	0.023193	0.003815	0.020294	0.088196	0.020752	0.20309	0.00946	0.020142	-0.001221	0.071869	0.044403	0.15945	0.010223	0.016632	0.13886	0.021667	0.24948	0.039978	-0.089264	-0.26413	-0.087128	-0.00946	-0.006866	-0.42694	-0.011597	-0.39993	-0.31525	-0.011139	-0.000153
23.104	0.01358	-0.13138	-0.028076	0.012207	-0.005188	0.045624	0.071869	0.0177	0.22018	0.024261	0.088196	-0.005188	0.018463	-0.019989	0.077057	0.002441	0.030975	0.23163	0.76462	0.061035	-0.079193	-0.10651	-0.27679	-0.14694	0.28229	-0.005188	-0.53162	-0.008087	-0.088348	-0.23972	-0.001373	0.004883
23.105	0.006104	-0.1091	-0.028839	0.020752	-0.002747	0.018463	0.082855	0.016632	0.22156	0.019989	0.084686	-0.007782	0.007782	-0.1001	0.13062	-0.007629	-0.000916	0.23193	1.0341	-0.049133	-0.22018	-0.033875	-0.073242	-0.16968	0.31342	-0.000153	-0.27618	-0.006561	0.76492	-0.18631	-0.001831	0.012054
